<?xml version="1.0" standalone="no"?>
<!DOCTYPE svg PUBLIC "-//W3C//DTD SVG 20010904//EN"
 "http://www.w3.org/TR/2001/REC-SVG-20010904/DTD/svg10.dtd">
<svg version="1.0" xmlns="http://www.w3.org/2000/svg"
 width="1000.000000pt" height="1000.000000pt" viewBox="0 0 1000.000000 1000.000000"
 preserveAspectRatio="xMidYMid meet">
<metadata>
Created by potrace 1.11, written by Peter Selinger 2001-2013
</metadata>
<g transform="translate(0.000000,1000.000000) scale(0.100000,-0.100000)"
fill="#000000" stroke="none">
<path d="M1683 9719 c-39 -18 -65 -38 -69 -52 -8 -22 -7 -219 1 -267 2 -14 7
-58 10 -98 4 -41 8 -83 11 -95 2 -12 7 -42 10 -67 10 -76 43 -229 75 -350 129
-487 367 -939 703 -1335 136 -160 429 -433 484 -450 15 -4 68 8 160 39 335
110 756 211 997 241 28 3 73 10 100 15 28 5 77 12 110 15 33 3 83 8 110 11
105 11 134 13 280 20 248 13 761 6 854 -11 14 -2 62 -7 206 -21 17 -1 46 -5
65 -8 105 -15 189 -28 219 -32 192 -26 693 -149 891 -219 176 -63 198 -63 262
-7 18 16 60 53 93 82 85 74 279 273 351 361 399 482 655 1050 749 1659 3 19 7
46 10 60 2 14 7 59 10 100 4 41 8 82 10 90 8 29 9 245 1 268 -4 13 -29 34 -59
50 l-52 27 -826 3 -827 2 -26 -31 c-18 -21 -26 -43 -27 -72 -14 -606 -359
-1144 -899 -1400 -115 -54 -291 -111 -380 -123 -19 -2 -46 -6 -60 -9 -58 -12
-121 -16 -220 -16 -189 -1 -324 20 -497 77 -509 166 -900 584 -1033 1103 -26
102 -40 195 -46 306 -5 105 -16 138 -50 154 -18 8 -253 11 -832 11 l-807 -1
-62 -30z"/>
<path d="M1225 9527 c-77 -33 -470 -230 -560 -280 -44 -24 -102 -57 -130 -72
-109 -61 -197 -114 -362 -218 l-173 -108 0 -128 0 -127 746 -1120 c410 -615
755 -1127 766 -1136 34 -30 77 -22 150 27 37 25 69 45 72 45 3 0 31 18 64 40
33 21 77 49 98 60 22 12 55 31 74 42 88 52 228 125 370 194 85 41 171 82 190
93 42 22 64 62 55 98 -3 14 -59 78 -123 142 -65 64 -147 150 -182 191 -36 41
-68 77 -71 80 -4 3 -50 63 -103 134 -135 179 -224 319 -310 486 -21 41 -42 80
-46 85 -14 19 -117 259 -155 359 -59 161 -122 389 -160 581 -15 79 -44 300
-50 385 -8 109 -15 132 -47 154 -29 21 -52 20 -113 -7z"/>
<path d="M8662 9535 c-31 -23 -39 -47 -47 -146 -13 -180 -32 -299 -90 -582
-10 -49 -72 -254 -103 -342 -66 -190 -184 -447 -268 -586 -19 -31 -34 -60 -34
-64 0 -17 -222 -331 -312 -442 -55 -67 -164 -188 -244 -268 -82 -84 -147 -157
-150 -172 -9 -35 12 -71 56 -94 19 -11 100 -50 180 -88 232 -111 431 -222 655
-366 121 -78 159 -84 198 -32 14 17 356 529 761 1137 l736 1105 0 126 0 127
-92 60 c-143 92 -308 191 -478 287 -202 114 -670 345 -712 351 -22 3 -41 -1
-56 -11z"/>
<path d="M4738 7045 c-2 -2 -52 -6 -113 -9 -60 -3 -126 -8 -145 -10 -19 -2
-64 -7 -100 -11 -36 -3 -76 -7 -90 -9 -14 -2 -52 -7 -85 -11 -59 -7 -75 -10
-125 -19 -14 -3 -43 -8 -65 -11 -138 -19 -575 -123 -622 -146 -12 -7 -27 -25
-34 -41 -10 -24 -9 -35 4 -63 13 -28 34 -43 108 -80 304 -153 657 -268 979
-319 96 -15 123 -18 260 -33 90 -9 501 -9 585 0 33 4 85 10 115 13 30 4 64 8
75 10 11 2 40 7 65 10 131 17 415 90 582 150 194 69 470 195 495 226 6 7 14
27 17 45 6 26 2 36 -21 61 -22 24 -49 36 -132 57 -58 15 -112 28 -120 30 -9 2
-34 8 -56 14 -57 15 -311 65 -390 76 -22 3 -51 8 -65 10 -55 10 -252 32 -345
40 -38 3 -92 8 -120 11 -54 5 -652 13 -657 9z"/>
<path d="M2895 6653 c-22 -7 -53 -20 -70 -27 -16 -8 -68 -30 -115 -49 -96 -40
-386 -180 -470 -228 -30 -17 -80 -44 -110 -61 -30 -16 -124 -73 -208 -126
-159 -99 -190 -130 -176 -175 4 -12 189 -295 411 -629 l405 -607 76 -36 c166
-79 358 -158 383 -157 14 0 72 26 128 56 374 205 778 348 1176 416 162 28 164
28 235 35 36 3 88 9 115 12 112 15 624 8 767 -11 18 -3 55 -8 81 -11 27 -4 59
-8 70 -11 12 -2 54 -9 92 -15 39 -6 113 -21 165 -34 52 -13 106 -26 120 -29
53 -10 289 -85 377 -120 51 -20 95 -36 98 -36 14 0 313 -144 424 -205 95 -51
112 -55 162 -36 53 21 230 99 351 155 l56 27 404 607 c222 334 407 615 411
625 4 10 1 33 -7 51 -11 26 -44 51 -167 128 -196 122 -365 216 -553 307 -204
98 -435 194 -467 193 -15 0 -80 -34 -145 -75 -192 -119 -468 -256 -644 -319
-169 -60 -384 -124 -485 -144 -11 -2 -54 -10 -95 -19 -100 -19 -125 -24 -190
-30 -30 -4 -62 -8 -70 -10 -103 -27 -727 -27 -868 0 -9 1 -42 6 -72 10 -30 4
-62 9 -71 10 -9 2 -34 6 -55 9 -312 50 -729 192 -1040 357 -97 51 -284 161
-314 184 -33 26 -74 33 -115 18z"/>
<path d="M4847 4834 c-1 -1 -51 -5 -110 -9 -60 -3 -116 -8 -125 -10 -9 -1 -39
-6 -67 -9 -91 -11 -161 -22 -205 -31 -14 -3 -38 -8 -55 -11 -248 -45 -712
-203 -762 -260 -13 -14 -23 -34 -23 -44 0 -27 19 -64 39 -77 36 -22 466 -119
616 -138 28 -3 59 -8 70 -11 19 -4 41 -7 170 -20 28 -3 66 -7 85 -9 112 -13
276 -20 515 -20 286 0 425 7 625 31 30 3 66 7 80 9 52 5 188 26 260 40 41 8
91 17 110 20 93 16 356 81 386 96 24 12 44 49 44 79 0 48 -77 91 -317 174
-217 76 -470 139 -637 160 -21 3 -55 8 -75 11 -133 19 -272 28 -459 29 -90 1
-164 0 -165 0z"/>
<path d="M3051 4220 c-30 -7 -63 -50 -63 -83 0 -27 945 -1455 989 -1496 35
-31 71 -24 159 30 163 100 391 188 559 215 22 3 47 8 55 9 91 17 270 22 400
11 117 -10 139 -13 267 -47 169 -44 303 -100 450 -190 85 -52 121 -59 156 -28
14 13 242 349 506 746 519 779 510 762 457 812 -32 30 -65 29 -175 -8 -266
-90 -619 -176 -881 -216 -25 -4 -54 -9 -65 -11 -11 -2 -40 -7 -65 -10 -25 -3
-52 -7 -60 -9 -8 -2 -53 -7 -100 -11 -47 -3 -88 -8 -91 -10 -17 -10 -285 -19
-549 -19 -259 0 -456 7 -555 20 -16 2 -57 7 -90 10 -99 10 -137 15 -195 25
-30 5 -86 14 -125 21 -248 40 -523 106 -770 185 -181 58 -189 60 -214 54z"/>
<path d="M4815 2473 c-426 -72 -770 -372 -900 -786 -87 -275 -58 -603 77 -857
86 -163 206 -300 349 -403 135 -96 268 -153 454 -193 100 -22 310 -22 410 0
200 44 351 111 485 215 72 55 191 181 235 246 22 33 42 62 45 65 27 27 101
200 126 295 38 144 50 330 30 450 -3 17 -8 48 -12 69 -10 64 -62 215 -101 291
-94 185 -252 355 -428 461 -61 37 -185 95 -185 87 0 -3 -6 -1 -12 5 -16 12
-103 37 -188 53 -91 17 -290 18 -385 2z"/>
</g>
</svg>
